<svg xmlns="http://www.w3.org/2000/svg" version="1.1" xmlns:xlink="http://www.w3.org/1999/xlink" xmlns:svgjs="http://svgjs.dev/svgjs" width="130" height="50" viewBox="0 0 1000 424">
	<g transform="matrix(1,0,0,1,-0.6060606060606233,0.04283655667379094)">
		<svg viewBox="0 0 396 168" data-background-color="#2124b1" preserveAspectRatio="xMidYMid meet" height="424" width="1000" xmlns="http://www.w3.org/2000/svg" xmlns:xlink="http://www.w3.org/1999/xlink">
			<g id="tight-bounds" transform="matrix(1,0,0,1,0.2400000000000091,-0.016972975285838743)">
				<svg viewBox="0 0 395.52 168.03394595057168" height="168.03394595057168" width="395.52">
					<g>
						<svg viewBox="0 0 397.4975999999999 168.8741156803245" height="168.03394595057168" width="395.52">
							<g>
								<rect width="397.4975999999999" height="5.172391120373453" x="0" y="92.80579018533959" fill="#dfdfdf" opacity="1" stroke-width="0" stroke="transparent" fill-opacity="1" class="rect-i$-0" data-fill-palette-color="secondary" rx="1%" id="i$-0" data-palette-color="#dfdfdf"></rect>
							</g>
							<g transform="matrix(1,0,0,1,0.9887999999999693,111.51847219674302)">
								<svg viewBox="0 0 395.52 57.355643483581474" height="57.355643483581474" width="395.52">
									<g id="textblocktransform">
										<svg viewBox="0 0 395.52 57.355643483581474" height="57.355643483581474" width="395.52" id="textblock">
											<g>
												<svg viewBox="0 0 395.52 57.355643483581474" height="57.355643483581474" width="395.52">
													<g transform="matrix(1,0,0,1,0,0)">
														<svg width="395.52" viewBox="3.75 -35.2 245.13 35.550000000000004" height="57.355643483581474" data-palette-color="#2f3061">
															<path d="M3.75-34.75L9.45-34.75 9.45 0 3.75 0 3.75-34.75ZM45.5-34.8L45.5 0 39.8 0 22.65-25.95 22.65 0 16.95 0 16.95-34.8 22.65-34.8 39.8-8.9 39.8-34.8 45.5-34.8ZM51.2-34.75L75.45-34.75 75.45-30.1 66.2-30.1 66.2 0 60.5 0 60.5-30.1 51.2-30.1 51.2-34.75ZM100.39-30.15L86.89-30.15 86.89-19.95 98.89-19.95 98.89-15.3 86.89-15.3 86.89-4.65 100.39-4.65 100.39 0 81.19 0 81.19-34.8 100.39-34.8 100.39-30.15ZM132.24 0L125.44 0 117.44-13.9 113.09-13.9 113.09 0 107.39 0 107.39-34.75 119.39-34.75Q123.39-34.75 126.17-33.35 128.94-31.95 130.32-29.6 131.69-27.25 131.69-24.35L131.69-24.35Q131.69-20.95 129.72-18.18 127.74-15.4 123.64-14.4L123.64-14.4 132.24 0ZM113.09-30.1L113.09-18.45 119.39-18.45Q122.59-18.45 124.22-20.05 125.84-21.65 125.84-24.35L125.84-24.35Q125.84-27.05 124.24-28.58 122.64-30.1 119.39-30.1L119.39-30.1 113.09-30.1ZM167.54-34.8L167.54 0 161.84 0 144.69-25.95 144.69 0 138.99 0 138.99-34.8 144.69-34.8 161.84-8.9 161.84-34.8 167.54-34.8ZM177.34 0.35Q175.79 0.35 174.74-0.7 173.69-1.75 173.69-3.3L173.69-3.3Q173.69-4.85 174.74-5.9 175.79-6.95 177.34-6.95L177.34-6.95Q178.84-6.95 179.89-5.9 180.94-4.85 180.94-3.3L180.94-3.3Q180.94-1.75 179.89-0.7 178.84 0.35 177.34 0.35L177.34 0.35ZM200.28-34.75L206.03-34.75 206.03-9.7Q206.03-5.05 203.21-2.35 200.38 0.35 195.78 0.35L195.78 0.35Q191.18 0.35 188.36-2.35 185.53-5.05 185.53-9.7L185.53-9.7 191.28-9.7Q191.33-7.4 192.46-6.05 193.58-4.7 195.78-4.7L195.78-4.7Q197.98-4.7 199.13-6.08 200.28-7.45 200.28-9.7L200.28-9.7 200.28-34.75ZM231.13 0.35Q226.28 0.35 222.21-1.93 218.13-4.2 215.76-8.28 213.38-12.35 213.38-17.45L213.38-17.45Q213.38-22.55 215.76-26.6 218.13-30.65 222.21-32.93 226.28-35.2 231.13-35.2L231.13-35.2Q236.03-35.2 240.11-32.93 244.18-30.65 246.53-26.6 248.88-22.55 248.88-17.45L248.88-17.45Q248.88-12.35 246.53-8.28 244.18-4.2 240.11-1.93 236.03 0.35 231.13 0.35L231.13 0.35ZM231.13-4.6Q234.58-4.6 237.28-6.18 239.98-7.75 241.51-10.68 243.03-13.6 243.03-17.45L243.03-17.45Q243.03-21.3 241.51-24.2 239.98-27.1 237.28-28.65 234.58-30.2 231.13-30.2L231.13-30.2Q227.68-30.2 224.98-28.65 222.28-27.1 220.76-24.2 219.23-21.3 219.23-17.45L219.23-17.45Q219.23-13.6 220.76-10.68 222.28-7.75 224.98-6.18 227.68-4.6 231.13-4.6L231.13-4.6Z" opacity="1" transform="matrix(1,0,0,1,0,0)" fill="#2f3061" class="undefined-text-0" data-fill-palette-color="primary" id="text-0"></path>
														</svg>
													</g>
												</svg>
											</g>
										</svg>
									</g>
								</svg>
							</g>
							<g transform="matrix(1,0,0,1,153.01918358920312,0)">
								<svg viewBox="0 0 91.45923282159367 79.2654992943096" height="79.2654992943096" width="91.45923282159367">
									<g>
										<svg xmlns="http://www.w3.org/2000/svg" xmlns:xlink="http://www.w3.org/1999/xlink" version="1.1" x="8" y="0" viewBox="10.5 9.5 79.3 83.29999999999998" enable-background="new 0 0 100 100" xml:space="preserve" height="79.2654992943096" width="75.45923282159367" class="icon-icon-0" data-fill-palette-color="accent" id="icon-0"><g fill="#2f3061" data-fill-palette-color="accent"><path d="M50 17.4c5.7 0 10.6 3.2 13.1 8l1.8-1v11.4c0 2.7 2.2 4.8 4.8 4.8h0.4V38H70c-1.3 0-2.4-1.1-2.4-2.4V22.9l4.3-2.3L50 9.5 28.1 21.1l8.7 4.5C39.3 20.7 44.2 17.4 50 17.4z" fill="#2f3061" data-fill-palette-color="accent"></path><path d="M50 19.9c-6.8 0-12.4 5.6-12.4 12.5 0 6.9 5.5 12.5 12.4 12.5 6.8 0 12.4-5.6 12.4-12.5C62.4 25.5 56.8 19.9 50 19.9z" fill="#2f3061" data-fill-palette-color="accent"></path><path d="M88.3 78.1L70.1 52.8c0 0-2.4-4.6-8-4.8v0H38v0c-5.7 0.2-8 4.8-8 4.8L11.7 78.1c-0.8 1.1-1.2 2.5-1.2 4 0 3.9 3.2 7.1 7.1 7.1h9.9l0 1.8c0 1 0.8 1.8 1.8 1.8h41.7c1 0 1.8-0.8 1.8-1.8l0-1.8h9.9c3.9 0 7.1-3.2 7.1-7.1C89.5 80.6 89.1 79.2 88.3 78.1zM72.6 89L72.6 89H27.4V61.8c0-1.2 1-2.1 2.1-2.1l20.5 0 20.5 0c1.2 0 2.1 1 2.1 2.1V89z" fill="#2f3061" data-fill-palette-color="accent"></path><path d="M50 70c-2.6 0-4.8 2.1-4.8 4.8 0 2.7 2.1 4.8 4.8 4.8 2.6 0 4.8-2.2 4.8-4.8C54.8 72.2 52.6 70 50 70z" fill="#2f3061" data-fill-palette-color="accent"></path></g></svg>
									</g>
								</svg>
							</g>
							<g>
								<rect width="76.48606358920316" height="5.172391120373453" y="73.09310817393616" x="244.4784164107968" fill="#dfdfdf" data-fill-palette-color="secondary"></rect>
								<rect width="76.48606358920316" height="5.172391120373453" y="73.09310817393616" x="76.53311999999997" fill="#dfdfdf" data-fill-palette-color="secondary"></rect>
							</g>
						</svg>
					</g>
					<defs></defs>
				</svg>
				<rect width="395.52" height="168.03394595057168" fill="none" stroke="none" visibility="hidden"></rect>
			</g>
		</svg>
	</g>
</svg>